<svg width="404" height="130" viewBox="0 0 404 130" fill="none" xmlns="http://www.w3.org/2000/svg">
<rect x="0.86792" width="402.264" height="130" rx="12.2642" fill="#E4E4E4"/>
<g style="mix-blend-mode:screen">
<path d="M9.45282 13.4906C9.45282 10.1039 12.1982 7.35849 15.5849 7.35849H389.642C393.028 7.35849 395.774 10.1039 395.774 13.4906V117.736C395.774 121.123 393.028 123.868 389.642 123.868H15.5849C12.1983 123.868 9.45282 121.123 9.45282 117.736V13.4906Z" fill="#3F72F7"/>
</g>
<path d="M84.8681 91.2076H78.0125V51.4288C78.0125 49.1436 78.039 47.3101 78.0922 45.9283C78.1453 44.5465 78.2251 43.1116 78.3313 41.6236C77.481 42.4739 76.6839 43.1914 75.9398 43.7759C75.2489 44.3605 74.3986 45.1046 73.3889 46.008L67.3304 50.9505L63.6634 46.2472L79.0488 34.2896H84.8681V91.2076ZM143.641 91.2076H106.014V85.3882L120.921 70.3217C123.738 67.4519 126.13 64.9009 128.096 62.6689C130.115 60.4368 131.63 58.2579 132.64 56.1321C133.65 54.0063 134.154 51.6414 134.154 49.0373C134.154 45.9017 133.224 43.5368 131.364 41.9425C129.504 40.295 127.086 39.4712 124.11 39.4712C121.293 39.4712 118.849 39.9495 116.776 40.9061C114.703 41.8627 112.578 43.1914 110.399 44.892L106.652 40.1887C108.884 38.3286 111.435 36.7609 114.305 35.4854C117.228 34.1568 120.496 33.4925 124.11 33.4925C129.425 33.4925 133.623 34.8476 136.705 37.558C139.788 40.2684 141.329 43.962 141.329 48.6387C141.329 51.6148 140.718 54.4049 139.495 57.009C138.273 59.6131 136.572 62.1906 134.394 64.7415C132.215 67.2925 129.664 69.9763 126.741 72.7929L114.863 84.5113V84.8302H143.641V91.2076ZM187.108 47.6024C187.108 51.4288 186.018 54.4846 183.839 56.7698C181.713 59.0019 178.87 60.4899 175.31 61.234V61.5528C179.827 62.0843 183.202 63.5192 185.434 65.8575C187.719 68.1959 188.861 71.2517 188.861 75.025C188.861 78.3731 188.091 81.3226 186.55 83.8736C185.008 86.4245 182.617 88.4175 179.375 89.8524C176.186 91.2873 172.068 92.0047 167.019 92.0047C164.043 92.0047 161.279 91.7656 158.728 91.2873C156.177 90.8621 153.733 90.0649 151.394 88.8958V82.359C153.786 83.5813 156.363 84.5113 159.127 85.1491C161.891 85.7868 164.548 86.1057 167.099 86.1057C172.201 86.1057 175.868 85.1225 178.1 83.1561C180.385 81.1366 181.527 78.3731 181.527 74.8656C181.527 71.3049 180.119 68.7539 177.302 67.2127C174.539 65.6184 170.633 64.8212 165.584 64.8212H160.084V58.8425H165.664C170.341 58.8425 173.875 57.8593 176.266 55.8929C178.711 53.9266 179.933 51.3225 179.933 48.0807C179.933 45.3171 179.003 43.1914 177.143 41.7033C175.283 40.1621 172.759 39.3915 169.57 39.3915C166.488 39.3915 163.857 39.8432 161.678 40.7467C159.499 41.6502 157.347 42.7928 155.221 44.1745L151.713 39.3915C153.733 37.7972 156.231 36.4154 159.207 35.2462C162.236 34.077 165.664 33.4925 169.49 33.4925C175.442 33.4925 179.853 34.8211 182.723 37.4783C185.646 40.1355 187.108 43.5102 187.108 47.6024ZM222.284 34.2896L201.079 91.2076H194.224L215.428 34.2896H222.284ZM258.561 82.6778L260.394 88.258C258.162 89.3741 255.877 90.2244 253.539 90.809C251.2 91.3404 248.33 91.6061 244.929 91.6061C239.402 91.6061 235.097 90.5432 232.015 88.4175C228.986 86.2385 227.471 83.2624 227.471 79.4892C227.471 77.6822 228.029 75.5299 229.145 73.0321C230.314 70.4811 232.653 67.877 236.16 65.2198C233.716 64.6884 231.67 63.6255 230.022 62.0311C228.375 60.4368 227.551 58.4173 227.551 55.9726C227.551 53.7406 228.242 51.4288 229.624 49.0373C231.005 46.6458 233.131 44.3871 236.001 42.2613C238.924 40.0824 242.617 38.2755 247.082 36.8406L249.314 42.9788C244.052 44.7857 240.173 46.8052 237.675 49.0373C235.23 51.2162 234.008 53.3951 234.008 55.5741C234.008 56.5838 234.566 57.4607 235.682 58.2047C236.851 58.9487 238.446 59.4536 240.465 59.7193C242.485 59.9319 244.823 59.7459 247.48 59.1613L248.038 64.9009C244.212 66.9204 241.289 68.8071 239.269 70.5609C237.303 72.2615 235.948 73.8558 235.204 75.3439C234.46 76.7788 234.088 78.0542 234.088 79.1703C234.088 81.4555 235.177 83.0764 237.356 84.033C239.588 84.9365 242.352 85.3882 245.647 85.3882C248.304 85.3882 250.802 85.0959 253.14 84.5113C255.478 83.8736 257.285 83.2624 258.561 82.6778ZM282.359 91.6061C278.214 91.6061 274.972 90.7824 272.634 89.1349C270.296 87.4343 268.648 85.1491 267.692 82.2792C266.788 79.4094 266.336 76.1942 266.336 72.6335C266.336 68.5945 267.001 64.8744 268.329 61.4731C269.711 58.0719 271.598 55.3349 273.989 53.2623C276.381 51.1896 279.171 50.1533 282.359 50.1533C285.548 50.1533 288.338 51.1896 290.73 53.2623C293.121 55.3349 294.981 58.0719 296.31 61.4731C297.692 64.8744 298.383 68.5945 298.383 72.6335C298.383 76.1942 297.904 79.4094 296.948 82.2792C296.044 85.1491 294.423 87.4343 292.085 89.1349C289.747 90.7824 286.505 91.6061 282.359 91.6061ZM282.359 85.1491C285.123 85.1491 287.196 84.591 288.577 83.475C289.959 82.3058 290.863 80.8443 291.288 79.0906C291.766 77.3368 292.005 75.5564 292.005 73.7495C292.005 70.8266 291.633 68.0896 290.889 65.5387C290.198 62.9346 289.135 60.8088 287.701 59.1613C286.266 57.5138 284.485 56.6901 282.359 56.6901C280.234 56.6901 278.453 57.5138 277.018 59.1613C275.584 60.8088 274.494 62.9346 273.75 65.5387C273.059 68.0896 272.714 70.8266 272.714 73.7495C272.714 75.5564 272.926 77.3368 273.351 79.0906C273.83 80.8443 274.76 82.3058 276.142 83.475C277.523 84.591 279.596 85.1491 282.359 85.1491ZM332.759 91.6061C332.546 90.1181 332.174 87.8594 331.643 84.8302C331.111 81.8009 330.553 78.2137 329.969 74.0684C329.384 69.9231 328.853 65.4058 328.374 60.5165C327.949 55.6272 327.71 50.5519 327.657 45.2906C325.106 45.6094 322.449 45.7689 319.685 45.7689C316.922 45.7689 314.264 45.5563 311.713 45.1311C309.216 44.6528 307.037 43.9088 305.177 42.8991L306.372 36.8406C308.339 37.6377 310.597 38.2223 313.148 38.5943C315.752 38.9664 318.356 39.1524 320.961 39.1524C323.618 39.1524 326.036 39.0461 328.215 38.8335C330.447 38.6209 332.174 38.3552 333.396 38.0363C333.396 41.0656 333.529 44.5731 333.795 48.559C334.114 52.5448 334.486 56.6635 334.911 60.9151C335.389 65.1667 335.868 69.2854 336.346 73.2712C336.877 77.2571 337.356 80.7912 337.781 83.8736C338.259 86.956 338.658 89.2678 338.977 90.809L332.759 91.6061Z" fill="black"/>
</svg>
